<?xml version="1.0" encoding="utf-8"?>
<!-- Generator: Adobe Illustrator 17.0.0, SVG Export Plug-In . SVG Version: 6.00 Build 0)  -->
<!DOCTYPE svg PUBLIC "-//W3C//DTD SVG 1.1//EN" "http://www.w3.org/Graphics/SVG/1.1/DTD/svg11.dtd">
<svg version="1.1" id="Layer_1" xmlns="http://www.w3.org/2000/svg" xmlns:xlink="http://www.w3.org/1999/xlink" x="0px" y="0px"
	 width="171.5px" height="61px" viewBox="0 0 171.5 61" style="enable-background:new 0 0 171.5 61;" xml:space="preserve">
<style type="text/css">
	.st0{fill:#C0D72F;}
	.st1{fill:#A6A698;}
	.st2{fill:#F79727;}
	.st3{fill:#FDDABF;}
</style>
<g>
	<rect x="119.6" y="43.5" class="st0" width="2.6" height="8.8"/>
	<path class="st0" d="M128.5,43.2c-1.3,0-2.2,0.6-2.8,1.3v-1h-2.5v10.8h2.6v-2.1v-0.8c0.3,0.3,1.1,1.1,2.6,1.1
		c2.5,0,4.3-2.1,4.3-4.6C132.8,46,131.6,43.2,128.5,43.2 M130.2,47.9c0,1.1-0.8,2.2-2.2,2.2c-0.6,0-1.2-0.3-1.6-0.6
		c-0.4-0.4-0.6-0.9-0.6-1.6c0-0.6,0.2-1.2,0.6-1.6c0.4-0.4,0.9-0.7,1.6-0.7C129.4,45.7,130.2,46.9,130.2,47.9L130.2,47.9z"/>
	<path class="st0" d="M138.3,43.2c-0.9,0-1.8,0.3-2.3,1.1v-1.1v-2.6h-2.6v11.7h2.6v-4.9c0-0.2,0-0.6,0.2-1c0.2-0.4,0.6-0.7,1.3-0.7
		c0.6,0,0.9,0.2,1.1,0.5c0.2,0.3,0.3,0.8,0.3,1.3v4.8h2.6v-4.9c0-1.1-0.1-2.2-0.6-2.9C140.5,43.7,139.7,43.2,138.3,43.2"/>
	<path class="st0" d="M146.7,43.2c-2.7,0-4.6,2.3-4.6,4.7c0,2.6,2.1,4.6,4.6,4.6c0.9,0,1.8-0.3,2.5-0.8c0.7-0.5,1.4-1.3,1.8-2.2
		h-2.7c-0.3,0.5-0.8,0.8-1.6,0.8c-1,0-1.9-0.6-2-1.6h6.5c0.2-1.6-0.1-3-1.2-4.2C149.2,43.8,148,43.2,146.7,43.2 M144.7,46.8
		c0.1-0.4,0.6-1.4,2-1.4c1.4,0,1.9,1,2,1.4H144.7z"/>
	<path class="st0" d="M154.4,44.5v-1H152v8.8h2.6v-4.7c0-1.2,0.6-1.7,2-1.7h0.1v-2.6C155.1,43.2,154.7,44,154.4,44.5"/>
	<path class="st0" d="M120.8,38.1c-1.1,0-2,0.9-2,2c0,1.1,0.9,2,2,2c1.1,0,2-0.9,2-2C122.9,39,121.9,38.1,120.8,38.1 M120.8,41.7
		c-0.9,0-1.6-0.7-1.6-1.6c0-0.9,0.7-1.6,1.6-1.6c0.9,0,1.6,0.7,1.6,1.6C122.4,41,121.7,41.7,120.8,41.7"/>
	<path class="st1" d="M120.8,39c-0.6,0-1.1,0.5-1.1,1.1c0,0.6,0.5,1.1,1.1,1.1c0.6,0,1.1-0.5,1.1-1.1C121.9,39.5,121.4,39,120.8,39"
		/>
	<path class="st0" d="M116.3,49c-0.3,0.5-0.8,1.2-1.9,1.2c-1.2,0-2.1-0.9-2.1-2.2c0-0.6,0.2-1.2,0.6-1.6c0.4-0.4,0.9-0.6,1.5-0.6
		c1.1,0,1.6,0.6,1.9,1.2h2.7c-0.4-2.1-2.3-3.7-4.6-3.7c-1.5,0-2.8,0.7-3.6,1.8v0c-0.6,0.8-1,1.8-1,2.9c0,1.3,0.5,2.5,1.4,3.4l0,0
		c0.8,0.8,2,1.3,3.3,1.3c2.4,0,4.1-1.6,4.6-3.6H116.3z"/>
	<path class="st0" d="M99.5,52.3V40.6h-2.6v3.7c-0.3-0.3-1-1-2.6-1c-2.2,0-4.3,1.7-4.3,4.7c0,2.6,1.7,4.7,4.4,4.7
		c1.8,0,2.4-0.9,2.7-1.2v0.9H99.5z M96.4,49.5c-0.4,0.4-1,0.7-1.6,0.7c-1.2,0-2.2-0.9-2.2-2.2v0c0-1,0.7-2.2,2.2-2.2
		c0.6,0,1.2,0.2,1.6,0.6c0.4,0.4,0.6,0.9,0.6,1.6C97.1,48.5,96.8,49.1,96.4,49.5"/>
	<path class="st0" d="M107.9,44.6c-0.8-0.9-2-1.4-3.3-1.4c-1.5,0-2.8,0.7-3.6,1.8l0,0c-0.6,0.8-1,1.8-1,2.9c0,1.3,0.5,2.5,1.4,3.4
		l0,0c0,0,0.1,0.1,0.1,0.1l0,0c0.8,0.7,1.9,1.2,3.1,1.2c0.9,0,1.8-0.3,2.5-0.8c0.7-0.5,1.4-1.3,1.8-2.2h-2.7
		c-0.3,0.5-0.8,0.8-1.6,0.8c-1,0-1.9-0.6-2-1.5h6.5C109.3,47.2,109,45.8,107.9,44.6 M102.6,46.8c0.1-0.4,0.6-1.4,2-1.4
		c1.4,0,1.9,1,2,1.4H102.6z"/>
	<path class="st0" d="M70.5,52.2V41.8H72v3.7h0c0.6-0.9,1.6-1.3,2.7-1.3c2.1,0,4,1.7,4,4.1c0,2.2-1.7,4.1-4,4.1
		c-0.7,0-1.9-0.3-2.7-1.3h0v1.1H70.5z M74.6,51.1c1.4,0,2.7-1.2,2.7-2.7c0-1.5-1.1-2.8-2.7-2.8c-1.6,0-2.7,1.4-2.7,2.7
		C72,50.1,73.3,51.1,74.6,51.1"/>
	<polygon class="st0" points="82.5,54.8 81,54.8 82.2,52.1 79.1,44.4 80.6,44.4 82.9,50.5 85.3,44.4 86.8,44.4 	"/>
	<path class="st2" d="M10.2,4.2h5.6V14c1.9-1.9,4.7-2.9,7.3-2.9c7.1,0,11.7,6.2,11.7,12.4c0,4.7-3.1,12.5-11.6,12.5
		c-4.5,0-6.5-2-7.9-3.6v2.8h-5.1V4.2z M22.5,30.9c3.7,0,6.7-2.8,6.7-7.4c0-4.5-3.3-7.3-6.8-7.3c-4.3,0-6.9,3.6-6.9,7
		C15.5,28.5,19.2,30.9,22.5,30.9"/>
	<path class="st2" d="M41.4,26.1c0.2,1.5,2.4,4.8,6.4,4.8c2.5,0,4.3-1.1,5.4-3h5.9c-1.3,4.2-5.8,8.1-11.3,8.1
		c-7.1,0-12.3-5.6-12.3-12.4c0-6.6,4.9-12.5,12.3-12.5c7.7,0,12.1,6.3,12.1,12.2c0,1.1-0.2,2.1-0.3,2.8H41.4z M54.1,21.6
		c-0.6-3.7-3.3-5.3-6.3-5.3c-2.3,0-5.6,1-6.6,5.3H54.1z"/>
	<path class="st2" d="M85.1,35.3H80v-2.9c-1.8,2.1-5.2,3.7-8.2,3.7c-6,0-11.4-4.8-11.4-12.6c0-7.2,5.2-12.3,11.7-12.3
		c4.8,0,7.6,3.4,7.7,3.7H80v-2.9h5.1V35.3z M73,16.3c-4.6,0-6.9,4-6.9,7.5c0,4,2.9,7.2,6.9,7.2c3.9,0,6.8-3,6.8-7.4
		C79.8,18.7,76.3,16.3,73,16.3"/>
	<path class="st2" d="M103.7,28.1c-1.2,1.7-3.1,2.8-5.4,2.8c-3.5,0-6.9-2.9-6.9-7.3c0-4.9,4-7.4,6.9-7.4c2.2,0,4.4,1.3,5.7,3.4
		l5.9-0.6c-1.8-4.7-6.4-7.9-11.5-7.9c-6.7,0-12.5,5.4-12.5,12.5c0,6.7,5.5,12.4,12.5,12.4c4.9,0,9.5-2.8,11.4-7.5L103.7,28.1z"/>
	<polygon class="st2" points="157.6,13.4 157.2,13.4 157.2,12.6 157.6,12.6 157.6,11.3 158.6,11.3 158.6,12.6 159.1,12.6 
		159.1,13.4 158.6,13.4 158.6,16.4 157.6,16.4 	"/>
	<path class="st2" d="M159.5,12.6h0.8v0.3h0c0.1-0.1,0.3-0.5,1-0.5c0.2,0,0.8,0,1.1,0.6c0.4-0.6,1-0.6,1.2-0.6
		c0.8,0,1.1,0.4,1.3,0.6c0.2,0.2,0.3,0.6,0.3,1.1v2.3h-0.9v-2.1c0-0.2,0-1-0.7-1c-0.3,0-0.5,0.1-0.6,0.4c-0.1,0.2-0.1,0.6-0.1,0.8v2
		h-0.9v-2.1c0-0.5-0.2-1-0.8-1c-0.7,0-0.7,0.8-0.7,1.2v1.9h-0.9V12.6z"/>
	<path class="st2" d="M122.6,16.3c1.3,0,2.5,0.4,3.6,1.2l6.7-0.7c-2.3-3.4-6.1-5.6-10.3-5.6c-5.2,0-9.8,3.3-11.6,8l6.8-0.8
		C119.3,17,121.1,16.3,122.6,16.3"/>
	<path class="st2" d="M122.6,30.9c-1.8,0-3.5-0.7-4.8-2l-6.7-0.5c1.9,4.4,6.3,7.7,11.5,7.7c4.4,0,8.5-2.2,10.7-6l-6.7-0.5
		C125.6,30.4,124.2,30.9,122.6,30.9"/>
	<polygon class="st2" points="135.9,35.3 141.5,35.3 141.5,30.7 135.9,30.3 	"/>
	<polygon class="st2" points="151.1,35.3 156.7,35.3 156.7,31.8 151.1,31.4 	"/>
	<path class="st2" d="M147.5,11.1c-3.5,0-5.5,1.9-6.4,2.8v-2h-5.2v4.4l18.5-2C152.5,12,149.5,11.1,147.5,11.1"/>
	<path class="st3" d="M133,16.7l-6.7,0.7c1.9,1.3,3.2,3.5,3.2,6.2c0,2.3-1,4.5-2.8,5.9l6.7,0.5c1.1-1.8,1.7-4,1.7-6.5
		C135,21,134.3,18.6,133,16.7"/>
	<path class="st3" d="M115.8,23.6c0-2.3,0.9-4.1,2.1-5.3l-6.8,0.8c-0.5,1.4-0.8,2.9-0.8,4.5c0,1.7,0.3,3.3,1,4.7l6.7,0.5
		C116.6,27.6,115.8,25.8,115.8,23.6"/>
	<path class="st3" d="M154.5,14.4C154.5,14.4,154.5,14.3,154.5,14.4l-18.6,2v13.9l5.6,0.4v-6.5c0-2,0-4.4,1-5.8
		c1-1.6,2.8-2.1,3.8-2.1c4.7,0,4.7,5.6,4.7,7.5v7.6l5.6,0.4v-9.2C156.7,20.9,156.7,17,154.5,14.4"/>
</g>
</svg>
